<svg xmlns="http://www.w3.org/2000/svg" version="1.2" viewBox="0 0 504 396" width="382" height="300"><style/><path fill-rule="evenodd" d="m401.2 117.3v131.7c0 7.6-4.2 14.2-9 14.2h-278.4c-24.7 0-44.5-18.9-44.5-42.6v-74.4c0-23.2 19.8-42.6 44.5-42.6h278.4c4.8 0 9 6.2 9 13.7zm-18 27.5c0-6.6-5.2-11.8-11.8-11.8h-260.5c-6.6 0-11.8 5.2-11.8 11.8v59.2c0 6.6 5.2 11.8 11.8 11.8h260.5c6.6 0 11.8-5.2 11.8-11.8z"/><path fill-rule="evenodd" d="m466.1 133v142c0 39.3-31.7 71.1-71 71.1h-284.2c-39.3 0-71-31.8-71-71.1v-142c0-39.3 31.7-71.1 71-71.1h284.2c39.3 0 71 31.8 71 71.1zm-213.1 171.9c0-6.6-5.2-11.9-11.8-11.9h-23.7c-6.6 0-11.9 5.3-11.9 11.9 0 6.6 5.3 11.8 11.9 11.8h23.7c6.6 0 11.8-5.7 11.8-11.8zm71 0c0-6.6-5.2-11.9-11.8-11.9h-23.7c-6.6 0-11.8 5.3-11.8 11.9 0 6.6 5.2 11.8 11.8 11.8h23.7c6.6 0 11.8-5.7 11.8-11.8zm71.1 0c0-6.6-5.2-11.9-11.9-11.9h-23.6c-6.7 0-11.9 5.3-11.9 11.9 0 6.6 5.2 11.8 11.9 11.8h23.6c6.7 0 11.9-5.7 11.9-11.8zm47.3-158.7c0-27-22.2-48.7-50.2-48.7h-278.4c-27.5 0-50.2 21.7-50.2 48.7v74.4c0 27 22.2 48.8 50.2 48.8h278.4c27.5 0 50.2-21.8 50.2-48.8z"/><path fill-rule="evenodd" d="m406.9 186.5h29.8v34.1c0 19.9-14.2 36.4-33.1 41.2 1.9-3.3 3.3-8.1 3.3-12.8zm8.1 17.5l7.1 27 6.6-27z"/><path fill-rule="evenodd" d="m436.7 146.2v34.1h-29.8v-62.5c0-5.2-1.4-9.5-3.3-12.8 18.9 4.8 33.1 21.3 33.1 41.2zm-8.5 16.6l-6.6-27-6.6 27z"/></svg>